<?xml version="1.0" standalone="no"?>
<!DOCTYPE svg PUBLIC "-//W3C//DTD SVG 20010904//EN"
 "http://www.w3.org/TR/2001/REC-SVG-20010904/DTD/svg10.dtd">
<svg version="1.0" xmlns="http://www.w3.org/2000/svg"
 width="96.000000pt" height="96.000000pt" viewBox="0 0 96.000000 96.000000"
 preserveAspectRatio="xMidYMid meet">

<g transform="translate(0.000000,96.000000) scale(0.100000,-0.100000)"
fill="#000000" stroke="none">
<path d="M138 708 c-2 -24 -8 -42 -13 -41 -6 1 -11 -15 -11 -35 -1 -20 -4 -48
-8 -62 -7 -27 -9 -28 29 26 8 12 16 10 45 -15 52 -45 60 -37 12 12 -23 23 -42
47 -42 53 0 6 22 23 50 38 47 26 71 46 53 46 -4 0 -28 -11 -52 -25 -23 -14
-45 -25 -48 -25 -3 0 -3 16 0 35 3 19 2 35 -3 35 -5 0 -10 -19 -12 -42z"/>
<path d="M324 741 c7 -10 -42 -101 -54 -101 -4 0 -7 -10 -7 -22 1 -13 -2 -33
-7 -45 -4 -14 -3 -23 2 -23 6 0 13 12 17 27 10 41 24 53 62 53 30 0 36 -5 50
-37 9 -21 18 -32 20 -25 3 7 -9 42 -26 79 -18 38 -29 74 -26 85 5 14 1 18 -15
18 -12 0 -19 -4 -16 -9z m25 -85 c-2 -2 -14 -7 -26 -10 -19 -6 -22 -4 -16 11
3 10 11 24 17 32 8 11 12 9 20 -8 5 -12 7 -23 5 -25z"/>
<path d="M428 700 c-4 -70 2 -150 13 -150 5 0 9 14 9 31 l0 30 33 -25 c50 -38
56 -32 14 12 l-38 38 26 12 c14 6 25 17 25 24 0 25 -40 78 -59 78 -16 0 -20
-9 -23 -50z m48 13 c20 -26 17 -53 -5 -53 -13 0 -20 9 -23 30 -6 43 5 52 28
23z"/>
<path d="M626 733 c-13 -34 -39 -78 -52 -86 -7 -4 -11 -13 -8 -21 3 -7 0 -25
-5 -39 -6 -15 -7 -27 -2 -27 5 0 14 15 21 34 8 26 18 35 42 40 47 9 48 9 67
-36 9 -23 20 -38 23 -32 3 5 -10 41 -28 79 -19 39 -32 78 -30 88 2 9 -2 17 -9
17 -7 0 -16 -8 -19 -17z m28 -75 c-3 -5 -16 -8 -30 -8 -24 0 -24 0 -8 32 l16
32 13 -25 c7 -13 11 -27 9 -31z"/>
<path d="M720 734 c8 -8 15 -51 18 -95 3 -43 9 -79 15 -79 6 0 8 27 5 72 l-6
72 20 -24 c10 -13 24 -43 31 -67 6 -24 14 -43 18 -43 9 0 16 171 8 176 -8 5
-19 -32 -19 -65 0 -21 -4 -18 -35 23 -20 25 -43 46 -52 46 -13 0 -13 -3 -3
-16z"/>
<path d="M285 461 l-30 -6 -9 -98 c-5 -53 -7 -99 -5 -101 8 -7 119 7 119 16 0
5 -22 6 -50 2 l-50 -7 0 37 c0 33 2 36 30 36 17 0 30 5 30 10 0 6 -14 10 -31
10 -28 0 -31 3 -25 23 3 12 6 30 6 39 0 12 11 19 35 24 19 3 35 10 35 15 0 10
-10 10 -55 0z"/>
<path d="M520 365 c0 -122 18 -144 22 -27 l3 77 28 -47 c15 -27 30 -48 33 -48
3 0 13 17 22 38 l17 37 3 -62 c2 -35 6 -63 10 -63 10 0 2 173 -8 184 -5 5 -14
-11 -21 -35 -7 -24 -16 -48 -20 -53 -4 -5 -24 17 -44 48 -19 31 -38 56 -40 56
-3 0 -5 -47 -5 -105z"/>
<path d="M759 467 c0 -1 -2 -9 -4 -17 -4 -22 -46 -90 -55 -90 -4 0 -7 -10 -7
-22 1 -13 -2 -33 -7 -45 -4 -14 -3 -23 3 -23 5 0 12 14 16 31 4 19 16 34 32
40 45 17 59 11 79 -32 10 -23 20 -36 22 -29 2 6 -10 43 -28 81 -17 38 -29 76
-27 84 3 7 -1 16 -9 19 -8 3 -14 4 -15 3z m20 -94 c1 -7 -10 -13 -24 -13 l-26
0 17 32 c16 30 18 31 25 13 4 -11 8 -26 8 -32z"/>
<path d="M216 449 c-3 -8 -13 -41 -22 -74 -9 -33 -21 -69 -27 -80 -11 -20 -10
-22 -59 123 -6 17 -16 32 -21 32 -5 0 -6 -8 -2 -17 3 -10 18 -55 33 -100 15
-46 30 -83 34 -83 22 0 91 191 74 207 -3 3 -8 0 -10 -8z"/>
<path d="M398 409 c-4 -69 2 -139 13 -139 5 0 9 14 9 31 l0 31 35 -31 c54 -47
67 -37 15 11 -45 41 -45 41 -20 48 31 7 36 30 15 69 -11 22 -23 31 -39 31 -22
0 -24 -5 -28 -51z m65 -9 c4 -17 -10 -30 -34 -30 -5 0 -9 19 -9 42 0 40 1 41
19 24 10 -10 21 -26 24 -36z"/>
</g>
</svg>
